<svg width="220" height="91" viewBox="0 0 220 91" fill="none" xmlns="http://www.w3.org/2000/svg">
<path d="M75.2665 80.1343H71.1879V55.6826H56.7635V51.604H89.6908V55.6826H75.2665V80.1343Z" fill="white"/>
<path d="M115.893 80.1343H111.815V73.9866H96.1171V69.8284H111.815V61.7507H101.21C100.216 61.7507 99.2805 61.9431 98.4051 62.3277C97.5297 62.6991 96.767 63.2098 96.1171 63.8597C95.4672 64.5096 94.9499 65.2723 94.5653 66.1477C94.1939 67.0098 94.0082 67.9383 94.0082 68.9331V80.1343H89.8898V68.9331C89.8898 67.368 90.1882 65.9023 90.7851 64.5361C91.382 63.17 92.1911 61.9762 93.2124 60.9549C94.2337 59.9336 95.434 59.1312 96.8135 58.5476C98.1929 57.9507 99.6586 57.6522 101.21 57.6522H115.893V80.1343Z" fill="white"/>
<path d="M146.334 73.529C146.334 74.4442 146.161 75.3063 145.816 76.1154C145.472 76.9112 145.001 77.6076 144.404 78.2044C143.82 78.8013 143.124 79.2722 142.315 79.617C141.519 79.9619 140.663 80.1343 139.748 80.1343H120.708V76.0557H139.748C140.106 76.0557 140.438 75.996 140.743 75.8767C141.061 75.744 141.333 75.565 141.559 75.3395C141.798 75.1007 141.983 74.8288 142.116 74.5238C142.248 74.2187 142.315 73.8871 142.315 73.529C142.315 73.1708 142.248 72.8393 142.116 72.5342C141.983 72.2159 141.798 71.9439 141.559 71.7185C141.333 71.4797 141.061 71.294 140.743 71.1614C140.438 71.0287 140.106 70.9624 139.748 70.9624H127.274C126.372 70.9624 125.523 70.79 124.727 70.4451C123.931 70.1003 123.235 69.6294 122.638 69.0326C122.041 68.4224 121.57 67.7128 121.225 66.9037C120.881 66.0946 120.708 65.2325 120.708 64.3173C120.708 63.4286 120.881 62.5864 121.225 61.7905C121.57 60.9815 122.041 60.2785 122.638 59.6816C123.235 59.0847 123.931 58.6139 124.727 58.269C125.523 57.9109 126.372 57.7318 127.274 57.7318H144.842V61.7507H127.274C126.929 61.7507 126.597 61.8237 126.279 61.9696C125.974 62.1022 125.709 62.2879 125.483 62.5267C125.258 62.7522 125.079 63.0241 124.946 63.3424C124.813 63.6475 124.747 63.9724 124.747 64.3173C124.747 64.6754 124.813 65.0136 124.946 65.332C125.079 65.637 125.258 65.9089 125.483 66.1477C125.709 66.3732 125.974 66.5522 126.279 66.6849C126.597 66.8175 126.929 66.8838 127.274 66.8838H139.748C140.663 66.8838 141.519 67.0629 142.315 67.421C143.124 67.7659 143.82 68.2434 144.404 68.8535C145.001 69.4504 145.472 70.1533 145.816 70.9624C146.161 71.7715 146.334 72.627 146.334 73.529Z" fill="white"/>
<path d="M171.163 80.1343C171.163 78.6488 170.911 77.2097 170.407 75.817C169.917 74.411 169.247 73.0913 168.398 71.8577C167.562 70.6109 166.587 69.4504 165.473 68.376C164.372 67.3016 163.212 66.3466 161.992 65.511C160.771 64.6621 159.525 63.9525 158.251 63.3822C156.991 62.7986 155.791 62.3675 154.65 62.089V80.1343H150.571V57.7318H152.78V57.7716C154.239 57.8512 155.791 58.1762 157.435 58.7465C159.093 59.3036 160.738 60.0663 162.37 61.0345C164.014 61.9895 165.593 63.1302 167.105 64.4566C168.63 65.7697 169.983 67.2221 171.163 68.8137V57.7318H175.222V80.1343H171.163Z" fill="white"/>
<path d="M185.13 80.1343H181.091V57.7318H185.13V80.1343Z" fill="white"/>
<path d="M207.433 80.1343H203.355V68.8535C203.355 67.872 203.169 66.9501 202.798 66.088C202.426 65.2259 201.916 64.4765 201.266 63.8398C200.629 63.1899 199.873 62.6792 198.997 62.3078C198.135 61.9364 197.214 61.7507 196.232 61.7507H195.078V80.1343H190.999V57.7318H196.232C197.187 57.7318 198.109 57.8512 198.997 58.09C199.886 58.3154 200.722 58.6404 201.504 59.0648C202.3 59.476 203.03 59.98 203.693 60.5769C204.369 61.1738 204.96 61.837 205.464 62.5665C205.981 61.837 206.564 61.1738 207.214 60.5769C207.878 59.98 208.594 59.476 209.363 59.0648C210.132 58.6404 210.948 58.3154 211.81 58.09C212.672 57.8512 213.574 57.7318 214.516 57.7318H219.729V80.1343H215.65V61.7507H214.516C213.535 61.7507 212.613 61.9497 211.751 62.3476C210.902 62.7455 210.152 63.2893 209.502 63.9791C208.866 64.6688 208.362 65.4779 207.99 66.4063C207.619 67.3348 207.433 68.3229 207.433 69.3708V80.1343Z" fill="white"/>
<path d="M48.5209 88.4C48.3169 88.3704 47.7341 88.2818 47.2095 88.1932C46.685 88.1193 45.4756 87.942 44.5139 87.8239C39.3995 87.1295 32.6678 85.3864 28.486 83.6579C26.6646 82.9045 23.1239 81.117 21.2734 80.0239C20.5886 79.625 19.8455 79.1818 19.5978 79.0489C17.2227 77.7489 12.1958 73.775 9.44193 71.0273C6.99403 68.5602 4.47327 65.6648 3.71559 64.4386C3.04533 63.3455 2.63735 62.6068 2.37508 62.0455C0.0291721 56.8455 0.757714 52 4.4587 48.2477C5.9595 46.7261 7.47486 46.2239 9.58764 46.5193C10.287 46.6227 11.2487 46.8148 11.7295 46.9182C12.2104 47.0364 13.6529 47.3761 14.9351 47.6568C16.2174 47.9523 17.5579 48.2773 17.9221 48.3955C18.2864 48.5136 19.2627 48.8386 20.0932 49.1193C20.9237 49.3852 21.6814 49.5773 21.798 49.533C22.0748 49.4295 22.206 48.0409 22.104 46.0909C22.0165 44.2886 21.9 43.6534 21.3317 41.7625C20.5012 39.0148 19.2772 36.9909 17.2519 35.0114C14.6437 32.4557 14.1774 31.9386 13.6529 30.9046C12.9972 29.6341 12.9535 28.8955 13.4926 27.2409C14.2212 24.9511 16.1591 21.7159 16.8002 21.7159C16.975 21.7159 17.7036 22.1739 18.4321 22.75C20.3118 24.2421 22.2205 25.5125 24.5373 26.7977C25.6447 27.4182 26.5918 27.9205 26.6209 27.9205C26.6501 27.9205 27.2912 28.2159 28.0197 28.5705C28.7628 28.925 29.5205 29.2648 29.7245 29.3239C29.9285 29.383 30.4531 29.5898 30.8902 29.7818C32.7407 30.5796 37.0682 31.9682 39.2684 32.4705C43.3191 33.4159 45.9127 33.667 51.0708 33.6818C56.4037 33.6818 59.7696 33.3864 64.1117 32.5C64.8694 32.3375 65.8893 32.1455 66.3701 32.042C66.851 31.9534 67.8709 31.7023 68.6286 31.5102C69.3863 31.3034 70.6103 30.9932 71.3242 30.8011C73.641 30.1955 74.2238 30.033 75.1855 29.708C79.6005 28.275 81.4655 27.6398 82.8643 27.0932C83.7677 26.7386 84.5545 26.4432 84.6128 26.4432C84.9771 26.4432 92.2479 23.2966 95.8032 21.5977C98.4697 20.3273 99.0088 20.0761 101.923 18.6875C103.788 17.8011 105.58 17.1659 106.862 16.9148C107.81 16.7227 108.116 16.7227 108.902 16.9C110.389 17.2102 111.015 17.8159 112.064 19.9432C112.764 21.3466 112.895 22.558 112.647 25.0398C112.181 29.7523 111.321 32.2489 108.99 35.6614C108.043 37.05 105.711 39.5761 104.254 40.7727C101.981 42.6489 99.9559 43.8455 99.9559 43.2989C99.9559 43.2398 100.524 42.6341 101.238 41.9398C102.797 40.3886 103.817 39.2511 104.648 38.1432C105.537 36.9761 108.014 33.15 108.407 32.3523C108.815 31.5398 109.427 29.7375 109.427 29.3682C109.427 28.8659 108.844 27.9352 108.363 27.6693C106.979 26.9011 103.045 27.9057 99.3731 29.9591C99.0088 30.1659 98.1928 30.6239 97.5517 30.9784C96.9106 31.333 96.2258 31.7171 96.0218 31.8352C95.1184 32.3671 87.7747 35.9864 85.8951 36.8136C85.2539 37.1091 84.438 37.4784 84.0737 37.6409C80.1396 39.4727 73.6847 41.7034 70.7414 42.25C70.4208 42.3091 69.4009 42.5307 68.4829 42.7375C62.4943 44.067 54.1889 44.9386 47.5009 44.9386C40.1281 44.9386 33.5566 43.9341 27.4078 41.8511C26.5772 41.5705 25.8195 41.3784 25.7175 41.4227C25.5864 41.467 25.4844 41.9841 25.4261 42.9443C25.3241 44.1409 25.3678 44.717 25.6301 46.2386C26.0672 48.6761 26.4024 49.8136 27.2329 51.6159C28.078 53.433 29.098 54.8364 30.5842 56.2102C33.3672 58.7807 34.3435 60.1693 34.5037 61.7205C34.6203 63.0648 33.5275 65.8568 31.9247 68.2204C31.1233 69.4023 30.7445 69.5352 29.9868 68.8852C26.3295 65.7239 20.2535 62.3409 15.008 60.5534C14.3232 60.3318 13.1866 59.933 12.4581 59.6818C11.2341 59.2386 11.0884 59.2239 10.2288 59.3568C7.86828 59.7557 7.24173 61.5432 8.52396 64.2023C9.77706 66.7875 11.2196 68.708 13.6675 71.042C18.5341 75.6659 22.3954 78.4875 27.1746 80.925C30.9776 82.8454 36.092 84.6625 41.6289 86.0364C44.1059 86.6568 44.7762 86.8045 48.7249 87.6614C49.6866 87.8682 50.5025 88.075 50.5462 88.1193C50.8231 88.4 49.6428 88.5625 48.5209 88.4Z" fill="#39CDC4"/>
<path d="M38.2048 76.3307C37.3451 75.5034 36.194 74.425 35.6257 73.9375C33.9938 72.5489 33.2216 71.7511 33.2216 71.4852C33.2216 71.2341 36.6311 65.9602 37.1994 65.3398C37.6948 64.7784 38.1902 64.8966 39.2976 65.842C40.6527 66.9943 42.8383 68.9886 43.2171 69.417C43.596 69.8307 43.9748 69.7568 44.31 69.1807C44.8199 68.3091 46.9618 65.2216 47.1221 65.1182C47.7341 64.7045 48.7249 65.3841 51.8431 68.3534C54.6407 71.0125 54.7281 71.2045 53.9267 72.7705C53.5333 73.5682 53.169 74.1 51.3331 76.567C50.6483 77.4829 50.1966 77.8523 49.774 77.8523C49.6283 77.8523 48.8561 77.217 48.0255 76.4045C46.1604 74.558 44.4994 73.125 44.2225 73.125C44.106 73.125 43.7417 73.5386 43.4066 74.0557C42.5177 75.3704 40.7984 77.542 40.4924 77.7193C39.997 77.9852 39.7493 77.8375 38.2048 76.3307Z" fill="#39CDC4"/>
<path d="M9.48564 25.5421C8.71339 25.0693 7.40201 23.9023 5.28924 21.7898C3.58445 20.0909 3.35132 19.8102 3.35132 19.3818C3.35132 18.5546 4.31299 16.9 6.23634 14.433C7.19802 13.1921 7.56229 12.8523 7.89742 12.8523C8.0577 12.8523 8.81538 13.4727 9.58764 14.2409C10.3599 15.0091 11.8315 16.3682 12.8661 17.2841C14.1046 18.3921 14.7166 19.0421 14.7166 19.2489C14.7166 19.5 13.9152 20.7705 11.2196 24.7739C10.9427 25.2023 10.5639 25.6159 10.3745 25.7046C9.96648 25.8818 10.0685 25.9114 9.48564 25.5421Z" fill="#39CDC4"/>
<path d="M97.2311 13.6205C96.4151 12.9557 93.3406 10.1932 92.8161 9.63182C91.3007 8.03637 91.2862 7.59319 92.6558 5.46591C93.9089 3.51591 95.8031 1.18182 96.1383 1.18182C96.2257 1.18182 97.0417 1.90569 97.945 2.79205C100.029 4.81591 101.471 6.05682 101.763 6.05682C101.894 6.05682 102.316 5.56932 102.724 4.99319C103.875 3.3091 105.216 1.62501 105.595 1.37387C105.974 1.12273 105.77 0.975006 108.407 3.48637C108.844 3.90001 109.733 4.71251 110.359 5.2591C112.283 6.94319 112.632 7.32728 112.632 7.71137C112.632 8.09546 110.024 12.2909 108.873 13.7534C108.48 14.2557 107.941 14.3148 107.387 13.9307C106.746 13.4875 105.172 12.0841 103.803 10.7546C103.074 10.0455 102.418 9.45455 102.345 9.45455C102.069 9.45455 101.835 9.75 100.612 11.5966C99.9121 12.6602 99.2127 13.6648 99.0379 13.8568C98.6007 14.3443 98.047 14.2705 97.2311 13.6205Z" fill="#39CDC4"/>
</svg>
