<svg width="16" height="16" viewBox="0 0 16 16" fill="none" xmlns="http://www.w3.org/2000/svg">
<path d="M11.868 11.528C11.868 11.528 11.9193 11.4913 12.0013 11.4287C13.23 10.4787 14 9.10199 14 7.56933C14 4.71199 11.3133 2.39333 8.00133 2.39333C4.688 2.39333 2 4.71199 2 7.56933C2 10.428 4.68667 12.6667 8 12.6667C8.28267 12.6667 8.74667 12.648 9.392 12.6107C10.2333 13.1573 11.4613 13.606 12.536 13.606C12.8687 13.606 13.0253 13.3327 12.812 13.054C12.488 12.6567 12.0413 12.02 11.868 11.5273V11.528Z" stroke="#39CDC4" stroke-linecap="round" stroke-linejoin="round"/>
<path d="M5 9C6.66667 10.6667 9.33333 10.6667 11 9" stroke="#39CDC4" stroke-linecap="round" stroke-linejoin="round"/>
</svg>
