<svg width="20" height="20" viewBox="0 0 20 20" fill="none" xmlns="http://www.w3.org/2000/svg">
<path d="M1.75781 20H13.4766C14.4459 20 15.2344 19.2115 15.2344 18.2422V5.85938H11.1328C10.1635 5.85938 9.375 5.07086 9.375 4.10156V0H1.75781C0.788516 0 0 0.788516 0 1.75781V18.2422C0 19.2115 0.788516 20 1.75781 20ZM4.10156 8.24219H11.1328C11.4567 8.24219 11.7188 8.50426 11.7188 8.82812C11.7188 9.15199 11.4567 9.41406 11.1328 9.41406H4.10156C3.7777 9.41406 3.51562 9.15199 3.51562 8.82812C3.51562 8.50426 3.7777 8.24219 4.10156 8.24219ZM4.10156 10.5859H11.1328C11.4567 10.5859 11.7188 10.848 11.7188 11.1719C11.7188 11.4957 11.4567 11.7578 11.1328 11.7578H4.10156C3.7777 11.7578 3.51562 11.4957 3.51562 11.1719C3.51562 10.848 3.7777 10.5859 4.10156 10.5859ZM4.10156 12.9297H11.1328C11.4567 12.9297 11.7188 13.1918 11.7188 13.5156C11.7188 13.8395 11.4567 14.1016 11.1328 14.1016H4.10156C3.7777 14.1016 3.51562 13.8395 3.51562 13.5156C3.51562 13.1918 3.7777 12.9297 4.10156 12.9297ZM4.10156 15.2734H8.78906C9.11293 15.2734 9.375 15.5355 9.375 15.8594C9.375 16.1832 9.11293 16.4453 8.78906 16.4453H4.10156C3.7777 16.4453 3.51562 16.1832 3.51562 15.8594C3.51562 15.5355 3.7777 15.2734 4.10156 15.2734Z" fill="#39CDC4"/>
<path d="M11.1328 4.6875H14.8911L10.5469 0.343319V4.10156C10.5469 4.42484 10.8095 4.6875 11.1328 4.6875Z" fill="#39CDC4"/>
</svg>
