<svg width="20" height="20" viewBox="0 0 20 20" fill="none" xmlns="http://www.w3.org/2000/svg">
<path d="M0.107066 13.8158L1.73573 18.2238C2.07066 19.1427 3.08181 19.606 3.99012 19.2751L6.19411 18.4729C6.49875 18.3624 6.65566 18.0257 6.54456 17.7216L5.44135 14.6908H6.47471C6.6969 14.6908 6.89958 14.5654 6.99922 14.3667L7.46303 13.4391L8.25152 16.5919C8.31852 16.8615 8.5424 17.0528 8.84359 17.0357C9.12129 17.0248 9.35262 16.8203 9.39844 16.5461L9.99281 12.9804L10.5872 16.5461C10.633 16.8204 10.8643 17.0248 11.142 17.0357C11.15 17.0362 11.1581 17.0362 11.1655 17.0362C11.4335 17.0362 11.6689 16.8542 11.7341 16.5919L12.5226 13.4391L12.9864 14.3667C13.0861 14.5654 13.2888 14.6908 13.511 14.6908H14.5443L13.4411 17.7217C13.33 18.0257 13.4869 18.3624 13.7915 18.4729L15.9955 19.2751C16.9024 19.6056 17.9145 19.144 18.2499 18.2238L19.8929 13.8158C20.2266 12.9004 19.754 11.8939 18.8416 11.5614L18.5239 11.4598C18.6838 10.7904 18.7882 10.1081 18.7882 9.41356C18.7882 4.56353 14.8428 0.61821 9.99281 0.61821C5.14278 0.61821 1.19746 4.56353 1.19746 9.41356C1.19746 10.1081 1.3019 10.7904 1.46171 11.4598L1.15836 11.5614C0.24658 11.8937 -0.226767 12.8998 0.107066 13.8158ZM2.37017 9.41352C2.37017 7.22493 3.30267 5.25442 4.78494 3.86283L6.06422 5.13312C6.26354 5.34421 6.5919 5.36766 6.82644 5.19175C8.6676 3.80795 11.318 3.80795 13.1591 5.19175C13.3847 5.36727 13.731 5.34479 13.9214 5.13312L15.2006 3.86283C16.6829 5.25442 17.6154 7.22493 17.6154 9.41352C17.6154 9.9706 17.5347 10.5179 17.416 11.0566L16.599 10.7592C16.2961 10.6498 15.9582 10.8056 15.8477 11.1096L14.9711 13.518H13.8734L12.8627 11.4967C12.7528 11.2774 12.5243 11.1514 12.274 11.176C12.0301 11.2029 11.8291 11.3788 11.7696 11.6169L11.2806 13.5724L10.5711 9.31728C10.5242 9.03442 10.2797 8.82713 9.99277 8.82713C9.70588 8.82713 9.46137 9.03442 9.41443 9.31728L8.70497 13.5724L8.21595 11.6169C8.15642 11.3787 7.95541 11.2029 7.71149 11.176C7.46471 11.1531 7.23279 11.2774 7.12283 11.4967L6.11218 13.518H5.01452L4.13784 11.1096C4.02733 10.805 3.69006 10.6493 3.38656 10.7592L2.56957 11.0566C2.45085 10.5179 2.37017 9.9706 2.37017 9.41352Z" fill="#39CDC4"/>
</svg>
