<svg width="20" height="20" viewBox="0 0 20 20" fill="none" xmlns="http://www.w3.org/2000/svg">
<path d="M3.05938 2.36021C3.05884 2.36021 3.05824 2.36021 3.0577 2.36021C2.86854 2.36021 2.69063 2.43395 2.55628 2.56796C2.42046 2.70345 2.34564 2.88385 2.34564 3.07591V13.8076C2.34564 14.2011 2.66706 14.5221 3.06221 14.5231C4.72807 14.5271 7.51906 14.8743 9.44445 16.8892V5.65814C9.44445 5.52474 9.41038 5.39942 9.34607 5.29571C7.7658 2.75079 4.72902 2.36412 3.05938 2.36021Z" fill="#39CDC4"/>
<path d="M17.6544 13.8076V3.07584C17.6544 2.88378 17.5796 2.70338 17.4438 2.56789C17.3094 2.43388 17.1314 2.36015 16.9424 2.36015C16.9418 2.36015 16.9412 2.36015 16.9407 2.36015C15.2711 2.36412 12.2343 2.75079 10.654 5.29571C10.5897 5.39941 10.5557 5.52474 10.5557 5.65814V16.8891C12.4811 14.8742 15.272 14.527 16.9379 14.523C17.333 14.522 17.6544 14.2011 17.6544 13.8076Z" fill="#39CDC4"/>
<path d="M19.2845 4.83511H18.7655V13.8076C18.7655 14.8124 17.9469 15.6317 16.9405 15.6342C15.5275 15.6376 13.1977 15.9139 11.5477 17.4756C14.4014 16.7768 17.4098 17.231 19.1243 17.6218C19.3383 17.6705 19.5595 17.6201 19.7311 17.4834C19.902 17.3471 20 17.1432 20 16.9244V5.55066C20.0001 5.15612 19.679 4.83511 19.2845 4.83511Z" fill="#39CDC4"/>
<path d="M1.23448 13.8076V4.83511H0.715558C0.321079 4.83511 0 5.15612 0 5.55066V16.9242C0 17.1431 0.0980475 17.3469 0.268957 17.4832C0.440338 17.6199 0.661349 17.6704 0.87576 17.6215C2.59024 17.2308 5.59867 16.7766 8.45228 17.4754C6.80231 15.9137 4.47247 15.6375 3.05947 15.6341C2.05321 15.6317 1.23448 14.8124 1.23448 13.8076Z" fill="#39CDC4"/>
</svg>
