<svg width="24" height="24" viewBox="0 0 24 24" fill="none" xmlns="http://www.w3.org/2000/svg">
<path d="M21 12.75C20.808 12.75 20.6164 12.6769 20.4698 12.5303L15.4313 7.49213C15.1384 7.19926 15.1384 6.72451 15.4313 6.43163C15.7241 6.13876 16.1989 6.13876 16.4918 6.43163L21.5303 11.4698C21.8232 11.7626 21.8232 12.2374 21.5303 12.5303C21.3837 12.6765 21.192 12.75 21 12.75Z" fill="#EA4335"/>
<path d="M15.9615 17.7881C15.7695 17.7881 15.5779 17.715 15.4313 17.5684C15.1384 17.2755 15.1384 16.8007 15.4313 16.5079L20.4698 11.4697C20.7626 11.1769 21.2374 11.1769 21.5303 11.4697C21.8232 11.7626 21.8232 12.2374 21.5303 12.5302L16.4921 17.5684C16.3455 17.7146 16.1535 17.7881 15.9615 17.7881Z" fill="#EA4335"/>
<path d="M21 12.75H6.75C6.336 12.75 6 12.414 6 12C6 11.586 6.336 11.25 6.75 11.25H21C21.414 11.25 21.75 11.586 21.75 12C21.75 12.414 21.414 12.75 21 12.75Z" fill="#EA4335"/>
<path d="M3.75 21.75C2.92275 21.75 2.25 21.0773 2.25 20.25C2.25 19.836 2.586 19.5 3 19.5C3.414 19.5 3.75 19.836 3.75 20.25V20.2511C4.164 20.2511 4.5 20.5864 4.5 21.0007C4.5 21.4151 4.164 21.75 3.75 21.75Z" fill="#EA4335"/>
<path d="M9 21.75H3.75C3.336 21.75 3 21.414 3 21C3 20.586 3.336 20.25 3.75 20.25H9C9.414 20.25 9.75 20.586 9.75 21C9.75 21.414 9.414 21.75 9 21.75Z" fill="#EA4335"/>
<path d="M3 21C2.586 21 2.25 20.664 2.25 20.25V3.75C2.25 3.336 2.586 3 3 3C3.414 3 3.75 3.336 3.75 3.75V20.25C3.75 20.664 3.414 21 3 21Z" fill="#EA4335"/>
<path d="M2.99963 4.5C2.58525 4.5 2.25 4.164 2.25 3.75C2.25 2.92275 2.92275 2.25 3.75 2.25C4.164 2.25 4.5 2.586 4.5 3C4.5 3.414 4.164 3.75 3.75 3.75H3.74887C3.74887 4.164 3.414 4.5 2.99963 4.5Z" fill="#EA4335"/>
<path d="M9 3.75H3.75C3.336 3.75 3 3.414 3 3C3 2.586 3.336 2.25 3.75 2.25H9C9.414 2.25 9.75 2.586 9.75 3C9.75 3.414 9.414 3.75 9 3.75Z" fill="#EA4335"/>
</svg>
