<svg width="20" height="20" viewBox="0 0 20 20" fill="none" xmlns="http://www.w3.org/2000/svg">
<g clip-path="url(#clip0_27_1035)">
<path d="M3.09641 5.02082C1.38906 5.02082 0 6.40984 0 8.11719C0 9.82453 1.38906 11.2136 3.09641 11.2136C4.80375 11.2136 6.19281 9.82453 6.19281 8.11719C6.19281 6.40984 4.80375 5.02082 3.09641 5.02082Z" fill="#39CDC4"/>
<path d="M17.8451 0H4.66542C3.47718 0 2.5105 0.96668 2.5105 2.15492V3.88934C2.7021 3.86293 2.89765 3.84895 3.09644 3.84895C5.44999 3.84895 7.36471 5.76367 7.36471 8.11719C7.36471 9.05484 7.06057 9.92262 6.54612 10.6277C6.65159 10.7722 6.74831 10.9236 6.83526 11.081L10.2134 7.70289C10.4422 7.4741 10.8132 7.4741 11.0421 7.70289C11.2708 7.93168 11.2708 8.3027 11.0421 8.53152L7.28054 12.293C7.33561 12.5662 7.36468 12.8488 7.36468 13.138V13.7239H17.8451C19.0333 13.7239 20 12.7572 20 11.569V2.15492C20 0.96668 19.0333 0 17.8451 0V0Z" fill="#39CDC4"/>
<path d="M3.09641 12.3854C2.1109 12.3854 1.20246 12.0495 0.479219 11.4864C0.176211 11.9648 0 12.5311 0 13.138V15.6484C0 15.972 0.262344 16.2344 0.585938 16.2344H0.627656V19.4141C0.627656 19.7377 0.89 20 1.21359 20H4.97914C5.30273 20 5.56508 19.7377 5.56508 19.4141V16.2344H5.6068C5.93039 16.2344 6.19273 15.972 6.19273 15.6484V13.138C6.19273 12.5311 6.01652 11.9648 5.71352 11.4865C4.99035 12.0495 4.08187 12.3854 3.09641 12.3854Z" fill="#39CDC4"/>
</g>
<defs>
<clipPath id="clip0_27_1035">
<rect width="20" height="20" fill="white"/>
</clipPath>
</defs>
</svg>
