<svg width="20" height="20" viewBox="0 0 20 20" fill="none" xmlns="http://www.w3.org/2000/svg">
<path d="M11.3129 4.12473H2.18818C0.984683 4.12473 0 5.10941 0 6.31291V13.6871C0 14.8906 0.984683 15.8753 2.18818 15.8753H11.3129C12.5164 15.8753 13.5011 14.8906 13.5011 13.6871V6.31291C13.5011 5.08753 12.5164 4.12473 11.3129 4.12473Z" fill="#39CDC4"/>
<path d="M18.3808 5.32823C18.2495 5.35011 18.1182 5.41576 18.0088 5.4814L14.5952 7.45077V12.5274L18.0307 14.4967C18.6652 14.8687 19.453 14.6499 19.825 14.0153C19.9344 13.8184 20 13.5996 20 13.3589V6.59738C20 5.78775 19.2342 5.13129 18.3808 5.32823Z" fill="#39CDC4"/>
</svg>
